<svg width="50" height="35" viewBox="0 0 50 35" fill="none" xmlns="http://www.w3.org/2000/svg">
<path d="M3.75 0C1.67249 0 0 1.67249 0 3.75V31.25C0 33.3275 1.67249 35 3.75 35H46.25C48.3275 35 50 33.3275 50 31.25V3.75C50 1.67249 48.3275 0 46.25 0H3.75ZM6.71875 5.60547C6.90817 5.58432 7.09991 5.60676 7.27932 5.67108C7.45874 5.7354 7.62107 5.83989 7.75391 5.97656L23.2227 21.1524C24.1904 22.1021 25.7679 22.1023 26.7383 21.1524L42.2461 5.97656C42.362 5.85738 42.5005 5.7625 42.6534 5.69748C42.8064 5.63246 42.9708 5.59862 43.1371 5.59792C43.3033 5.59721 43.468 5.62965 43.6215 5.69336C43.7751 5.75707 43.9143 5.85078 44.0312 5.96897C44.1481 6.08716 44.2403 6.22745 44.3023 6.38168C44.3643 6.53591 44.3949 6.70097 44.3924 6.86718C44.3898 7.03339 44.3542 7.1974 44.2875 7.34966C44.2208 7.50192 44.1244 7.63935 44.0039 7.75391L33.8672 17.6953L43.9844 27.2071C44.2236 27.4354 44.3626 27.7492 44.3711 28.0798C44.3795 28.4103 44.2566 28.7308 44.0293 28.971C43.802 29.2112 43.4889 29.3515 43.1583 29.3614C42.8278 29.3712 42.5068 29.2497 42.2656 29.0234L32.0898 19.4336L28.4961 22.9493C26.5587 24.8457 23.4012 24.8494 21.4648 22.9493L17.9102 19.4531L7.73438 29.0234C7.49321 29.2497 7.17223 29.3712 6.84169 29.3614C6.51115 29.3515 6.19796 29.2112 5.97067 28.971C5.74338 28.7308 5.6205 28.4103 5.62893 28.0798C5.63735 27.7492 5.7764 27.4354 6.01562 27.2071L16.1133 17.6953L5.99609 7.75391C5.82352 7.58984 5.70139 7.37993 5.64408 7.14882C5.58676 6.91771 5.59664 6.67501 5.67255 6.44932C5.74846 6.22363 5.88725 6.02432 6.07259 5.87482C6.25793 5.72533 6.48211 5.63189 6.71875 5.60547Z" fill="#B7B7B7"/>
</svg>
