<svg width="50" height="30" viewBox="0 0 50 30" fill="none" xmlns="http://www.w3.org/2000/svg">
<path d="M24.9106 29.6766C22.7086 29.6228 20.8919 28.6501 19.7319 26.6202C18.5429 24.5219 18.5947 22.3735 19.8624 20.3269C22.8806 15.456 25.938 10.6121 28.9767 5.75593C29.5982 4.76268 30.2052 3.75492 30.8555 2.78042C32.6512 0.00850841 36.3255 -0.827499 39.1415 0.895318C42.0022 2.65986 42.9592 6.33007 41.1777 9.22273C37.536 15.1601 33.8426 21.0684 30.0975 26.9476C28.9437 28.7662 27.1933 29.6433 24.9106 29.6764V29.6766Z" fill="#FFCB00"/>
<path d="M5.99818 29.6766C3.77548 29.6228 1.96925 28.6065 0.832027 26.585C-0.340441 24.4866 -0.265929 22.3342 1.00602 20.2876C4.25277 15.0732 7.51381 9.86642 10.7896 4.66733C11.2038 3.99542 11.6181 3.30698 12.0615 2.65603C13.9723 -0.116276 17.7664 -0.812781 20.5356 1.09994C23.1832 2.92879 23.9542 6.50284 22.2963 9.26225C18.6672 15.1284 14.9882 20.9738 11.3073 26.813C10.1121 28.7061 8.35339 29.6433 5.99818 29.6766Z" fill="#FF3D57"/>
<path d="M43.9452 17.7868C47.2946 17.8034 50.0063 20.468 50 23.7358C50 27.0537 47.2161 29.7284 43.8354 29.6871C40.4548 29.6457 37.791 27.0101 37.795 23.7276C37.7993 20.3975 40.521 17.7661 43.9452 17.7868Z" fill="#00D647"/>
</svg>
