<svg width="44" height="44" viewBox="0 0 44 44" fill="none" xmlns="http://www.w3.org/2000/svg">
<path fill-rule="evenodd" clip-rule="evenodd" d="M9.25927 27.7061C9.25927 30.2557 7.19934 32.3134 4.64697 32.3134C2.0946 32.3134 0.034668 30.2487 0.034668 27.7061C0.034668 25.1634 2.0946 23.0988 4.64697 23.0988H9.25927V27.7061ZM11.562 27.7061C11.562 25.1565 13.6219 23.0988 16.1743 23.0988C18.7266 23.0988 20.7866 25.1565 20.7866 27.7061V39.2208C20.7866 41.7704 18.7266 43.8281 16.1743 43.8281C13.6219 43.8281 11.562 41.7704 11.562 39.2208V27.7061Z" fill="#E01E5A"/>
<path fill-rule="evenodd" clip-rule="evenodd" d="M16.1743 9.21457C13.6219 9.21457 11.562 7.15688 11.562 4.60728C11.562 2.05769 13.6219 0 16.1743 0C18.7266 0 20.7866 2.05769 20.7866 4.60728V9.21457H16.1743ZM16.1743 11.5494C18.7266 11.5494 20.7866 13.6071 20.7866 16.1567C20.7866 18.7063 18.7266 20.764 16.1743 20.764H4.6123C2.05993 20.764 0 18.6993 0 16.1567C0 13.614 2.05993 11.5494 4.6123 11.5494H16.1743Z" fill="#36C5F0"/>
<path fill-rule="evenodd" clip-rule="evenodd" d="M34.6512 16.1567C34.6512 13.6071 36.7111 11.5494 39.2635 11.5494C41.8159 11.5494 43.8758 13.6071 43.8758 16.1567C43.8758 18.7063 41.8159 20.764 39.2635 20.764H34.6512V16.1567ZM32.3485 16.1567C32.3485 18.7063 30.2886 20.764 27.7362 20.764C25.1838 20.764 23.1239 18.7063 23.1239 16.1567V4.60728C23.1239 2.05769 25.1838 0 27.7362 0C30.2886 0 32.3485 2.05769 32.3485 4.60728V16.1567Z" fill="#2EB67D"/>
<path fill-rule="evenodd" clip-rule="evenodd" d="M27.7362 34.6135C30.2886 34.6135 32.3485 36.6712 32.3485 39.2208C32.3485 41.7704 30.2886 43.8281 27.7362 43.8281C25.1838 43.8281 23.1239 41.7704 23.1239 39.2208V34.6135H27.7362ZM27.7362 32.3134C25.1838 32.3134 23.1239 30.2557 23.1239 27.7061C23.1239 25.1565 25.1838 23.0988 27.7362 23.0988H39.2982C41.8505 23.0988 43.9105 25.1565 43.9105 27.7061C43.9105 30.2557 41.8505 32.3134 39.2982 32.3134H27.7362Z" fill="#ECB22E"/>
</svg>
