<svg width="22" height="19" viewBox="0 0 22 19" fill="none" xmlns="http://www.w3.org/2000/svg">
<path d="M3.17169 5.1832C4.60299 5.1832 5.76329 4.0229 5.76329 2.5916C5.76329 1.1603 4.60299 0 3.17169 0C1.74039 0 0.580093 1.1603 0.580093 2.5916C0.580093 4.0229 1.74039 5.1832 3.17169 5.1832Z" fill="white"/>
<path d="M18.7173 5.18321C20.1487 5.18321 21.3094 4.02243 21.3094 2.59218C21.3094 1.16194 20.1487 0.00115967 18.7173 0.00115967C17.2882 0.00115967 16.1274 1.16194 16.1274 2.59218C16.1274 4.02243 17.2882 5.18321 18.7173 5.18321Z" fill="white"/>
<path d="M20.7774 10.5978C19.9523 10.1188 18.8951 10.4009 18.4167 11.2266C16.873 13.8919 14.0102 15.5473 10.9453 15.5473C7.8804 15.5473 5.01761 13.8919 3.47393 11.2266C2.99488 10.4015 1.93889 10.1188 1.11322 10.5978C0.287547 11.0757 0.00598921 12.1329 0.483889 12.9586C2.64365 16.6862 6.65168 19.002 10.9453 19.002C15.2389 19.002 19.2469 16.6862 21.4061 12.9586C21.8846 12.1329 21.603 11.0757 20.7774 10.5978Z" fill="white"/>
</svg>
